<?xml version="1.0" encoding="UTF-8" standalone="no"?>
<!-- Created with Inkscape (http://www.inkscape.org/) -->

<svg
   xmlns:dc="http://purl.org/dc/elements/1.1/"
   xmlns:cc="http://creativecommons.org/ns#"
   xmlns:rdf="http://www.w3.org/1999/02/22-rdf-syntax-ns#"
   xmlns:svg="http://www.w3.org/2000/svg"
   xmlns="http://www.w3.org/2000/svg"
   xmlns:sodipodi="http://sodipodi.sourceforge.net/DTD/sodipodi-0.dtd"
   xmlns:inkscape="http://www.inkscape.org/namespaces/inkscape"
   width="90mm"
   height="90mm"
   viewBox="0 0 90 90"
   version="1.1"
   id="svg4771"
   inkscape:version="0.92.3 (2405546, 2018-03-11)"
   sodipodi:docname="logoCircle.svg">
  <defs
     id="defs4765" />
  <sodipodi:namedview
     id="base"
     pagecolor="#ffffff"
     bordercolor="#666666"
     borderopacity="1.0"
     inkscape:pageopacity="0.0"
     inkscape:pageshadow="2"
     inkscape:zoom="0.35"
     inkscape:cx="943.01463"
     inkscape:cy="425.87175"
     inkscape:document-units="mm"
     inkscape:current-layer="layer1"
     showgrid="false"
     fit-margin-top="0"
     fit-margin-left="0"
     fit-margin-right="0"
     fit-margin-bottom="0"
     inkscape:window-width="1920"
     inkscape:window-height="1029"
     inkscape:window-x="0"
     inkscape:window-y="0"
     inkscape:window-maximized="1" />
  <metadata
     id="metadata4768">
    <rdf:RDF>
      <cc:Work
         rdf:about="">
        <dc:format>image/svg+xml</dc:format>
        <dc:type
           rdf:resource="http://purl.org/dc/dcmitype/StillImage" />
        <dc:title></dc:title>
      </cc:Work>
    </rdf:RDF>
  </metadata>
  <g
     inkscape:label="Layer 1"
     inkscape:groupmode="layer"
     id="layer1"
     transform="translate(143.67262,-171.5119)">
    <circle
       style="fill:#d8e1f6;fill-opacity:1;stroke-width:0.1635244"
       id="path209"
       cx="-98.672623"
       cy="216.5119"
       r="45" />
    <g
       id="g4727"
       transform="matrix(0.38659433,0,0,0.42627981,100.68156,367.46345)">
      <g
         transform="matrix(0.35277777,0,0,-0.35277777,-491.30827,-327.65416)"
         id="g20">
        <path
           inkscape:connector-curvature="0"
           id="path22"
           style="fill:#fcbe0c;fill-opacity:1;fill-rule:nonzero;stroke:none"
           d="m 0,0 h 37.719 l 64.206,107.639 H 64.206 Z m -55.57,-93.162 c -4.036,-6.767 -10.577,-7.502 -13.202,-7.503 h -0.01 c -2.631,0 -9.16,0.732 -13.2,7.483 l -69.705,116.479 h -37.751 l 79.66,-133.112 c 8.711,-14.557 24.032,-23.244 40.994,-23.244 h 0.034 c 16.976,0.012 32.303,8.723 41,23.302 L 6.884,-51.694 H -30.835 Z M 132.498,206.1 c -8.601,15.144 -24.132,24.184 -41.546,24.184 h -319.99 c -17.429,0 -32.966,-9.051 -41.562,-24.213 -8.596,-15.16 -8.385,-33.141 0.564,-48.096 l 49.661,-82.985 h 37.752 l -59.616,99.618 c -4.154,6.941 -1.511,13.142 -0.182,15.486 1.33,2.344 5.295,7.798 13.383,7.798 h 319.99 c 8.083,0 12.047,-5.447 13.377,-7.788 1.329,-2.341 3.975,-8.536 -0.166,-15.477 L 95.04,159.333 h 37.664 c 8.179,14.69 8.146,32.059 -0.206,46.767" />
      </g>
      <g
         transform="matrix(0.35277777,0,0,-0.35277777,-448.29213,-369.02095)"
         id="g24">
        <path
           inkscape:connector-curvature="0"
           id="path26"
           style="fill:#5975b8;fill-opacity:1;fill-rule:nonzero;stroke:none"
           d="m 0,0 h -252.773 c -8.945,0 -16.197,7.251 -16.197,16.196 0,8.945 7.252,16.197 16.197,16.197 H 0 c 8.945,0 16.196,-7.252 16.196,-16.197 C 16.196,7.251 8.945,0 0,0" />
      </g>
      <g
         transform="matrix(0.35277777,0,0,-0.35277777,-513.82007,-339.1363)"
         id="g28">
        <path
           inkscape:connector-curvature="0"
           id="path30"
           style="fill:#fcbe0c;fill-opacity:1;fill-rule:nonzero;stroke:none"
           d="m 0,0 h -166.047 c -8.945,0 -16.196,7.252 -16.196,16.196 0,8.946 7.251,16.197 16.196,16.197 H 0 c 8.945,0 16.196,-7.251 16.196,-16.197 C 16.196,7.252 8.945,0 0,0" />
      </g>
      <g
         transform="matrix(0.35277777,0,0,-0.35277777,-477.95355,-312.8261)"
         id="g32">
        <path
           inkscape:connector-curvature="0"
           id="path34"
           style="fill:#5975b8;fill-opacity:1;fill-rule:nonzero;stroke:none"
           d="m 0,0 h -112.926 c -8.945,0 -16.197,7.251 -16.197,16.196 0,8.945 7.252,16.197 16.197,16.197 H 0 c 8.945,0 16.196,-7.252 16.196,-16.197 C 16.196,7.251 8.945,0 0,0" />
      </g>
    </g>
  </g>
</svg>
